Milton Jones, you know the weird bloke with the shirts from Mock the Week.
This surrealist wordsmith and king of the one-liners is the voice of eight
series on BBC Radio 4, including The Very World Of Milton Jones and Another
Case Of Milton Jones, and has turned up on The Michael McIntyre Roadshow on
BBC1of the surreal one-liners The Times, Sultan of the surreal The
Guardian


General
Format : AVI
Format/Info : Audio Video Interleave
File size : 700 MiB
Duration : 1h 8mn
Overall bit rate : 1 431 Kbps
Writing application : VirtualDubMod 1.5.10.2 (build 2540/release)
Writing library : VirtualDubMod build 2540/release

Video
ID : 0
Format : MPEG-4 Visual
Format profile : Advanced Simple@L5
Format settings, BVOP : 2
Format settings, QPel : No
Format settings, GMC : No warppoints
Format settings, Matrix : Default (H.263)
Muxing mode : Packed bitstream
Codec ID : XVID
Codec ID/Hint : XviD
Duration : 1h 8mn
Bit rate : 1 297 Kbps
Width : 624 pixels
Height : 352 pixels
Display aspect ratio : 16:9
Frame rate : 25.000 fps
Color space : YUV
Chroma subsampling : 4:2:0
Bit depth : 8 bits
Scan type : Progressive
Compression mode : Lossy
Bits/(Pixel*Frame) : 0.236
Stream size : 635 MiB (91%)
Writing library : XviD 57

Audio
ID : 1
Format : MPEG Audio
Format version : Version 1
Format profile : Layer 3
Mode : Joint stereo
Mode extension : MS Stereo
Codec ID : 55
Codec ID/Hint : MP3
Duration : 1h 8mn
Bit rate mode : Variable
Bit rate : 121 Kbps
Nominal bit rate : 128 Kbps
Channel(s) : 2 channels
Sampling rate : 48.0 KHz
Compression mode : Lossy
Stream size : 59.1 MiB (8%)
Alignment : Aligned on interleaves
Interleave, duration : 24 ms (0.60 video frame)
Interleave, preload duration : 505 ms
Writing library : LAME3.98r
Encoding settings : -m j -V 4 -q 2 -lowpass 17 --abr 128
 
http://bayimg.com/lAlDeaAdA 
http://bayimg.com/laLDFaAda 
http://bayimg.com/LALDGaaDa